<svg xmlns="http://www.w3.org/2000/svg" xmlns:xlink="http://www.w3.org/1999/xlink" width="1080" zoomAndPan="magnify" viewBox="0 0 810 809.999993" height="1080" preserveAspectRatio="xMidYMid meet" version="1.0"><defs><clipPath id="fcb683d743"><path d="M 20 225.261719 L 790 225.261719 L 790 583.988281 L 20 583.988281 Z M 20 225.261719 " clip-rule="nonzero"/></clipPath><clipPath id="be95194498"><path d="M 19.503906 225.261719 L 598 225.261719 L 598 584.738281 L 19.503906 584.738281 Z M 19.503906 225.261719 " clip-rule="nonzero"/></clipPath><clipPath id="5c3557dba2"><path d="M 57.753906 225.261719 L 559.5 225.261719 C 580.625 225.261719 597.75 242.386719 597.75 263.511719 L 597.75 546.488281 C 597.75 567.613281 580.625 584.738281 559.5 584.738281 L 57.753906 584.738281 C 36.628906 584.738281 19.503906 567.613281 19.503906 546.488281 L 19.503906 263.511719 C 19.503906 242.386719 36.628906 225.261719 57.753906 225.261719 Z M 57.753906 225.261719 " clip-rule="nonzero"/></clipPath><clipPath id="877c4dcc07"><path d="M 68.578125 225.261719 L 615 225.261719 L 615 584.738281 L 68.578125 584.738281 Z M 68.578125 225.261719 " clip-rule="nonzero"/></clipPath><clipPath id="c53f967c4e"><path d="M 705.992188 349.335938 L 777.558594 349.335938 L 777.558594 460.882812 L 705.992188 460.882812 Z M 705.992188 349.335938 " clip-rule="nonzero"/></clipPath><clipPath id="90e4edd92a"><path d="M 741.777344 349.335938 C 761.539062 349.335938 777.558594 365.359375 777.558594 385.121094 L 777.558594 424.878906 C 777.558594 444.640625 761.539062 460.664062 741.777344 460.664062 C 722.011719 460.664062 705.992188 444.640625 705.992188 424.878906 L 705.992188 385.121094 C 705.992188 365.359375 722.011719 349.335938 741.777344 349.335938 Z M 741.777344 349.335938 " clip-rule="nonzero"/></clipPath></defs><g clip-path="url(#fcb683d743)"><path fill="#ffffff" d="M 745.804688 336.804688 L 722.070312 336.804688 L 722.070312 268.605469 C 722.070312 244.703125 702.625 225.261719 678.730469 225.261719 L 63.492188 225.261719 C 39.589844 225.261719 20.148438 244.703125 20.148438 268.605469 L 20.148438 541.5 C 20.148438 565.398438 39.589844 584.839844 63.492188 584.839844 L 678.730469 584.839844 C 702.625 584.839844 722.070312 565.398438 722.070312 541.5 L 722.070312 473.300781 L 745.804688 473.300781 C 770.089844 473.300781 789.851562 453.542969 789.851562 429.257812 L 789.851562 380.847656 C 789.851562 356.558594 770.089844 336.804688 745.804688 336.804688 Z M 696.414062 541.5 C 696.414062 551.25 688.480469 559.183594 678.730469 559.183594 L 63.492188 559.183594 C 53.742188 559.183594 45.804688 551.25 45.804688 541.5 L 45.804688 268.605469 C 45.804688 258.855469 53.738281 250.917969 63.492188 250.917969 L 678.730469 250.917969 C 688.480469 250.917969 696.414062 258.851562 696.414062 268.605469 Z M 764.195312 429.253906 C 764.195312 439.394531 755.945312 447.640625 745.804688 447.640625 L 722.070312 447.640625 L 722.070312 362.460938 L 745.804688 362.460938 C 755.945312 362.460938 764.195312 370.707031 764.195312 380.84375 Z M 764.195312 429.253906 " fill-opacity="1" fill-rule="nonzero"/></g><path fill="#ffffff" d="M 85.582031 289.597656 L 178.90625 289.597656 L 178.90625 520.507812 L 85.582031 520.507812 Z M 85.582031 289.597656 " fill-opacity="1" fill-rule="nonzero"/><g clip-path="url(#be95194498)"><g clip-path="url(#5c3557dba2)"><path fill="#ffffff" d="M 19.503906 225.261719 L 598.035156 225.261719 L 598.035156 584.738281 L 19.503906 584.738281 Z M 19.503906 225.261719 " fill-opacity="1" fill-rule="nonzero"/></g></g><g clip-path="url(#877c4dcc07)"><path fill="#ffffff" d="M 68.578125 225.261719 L 614.8125 225.261719 L 614.8125 584.738281 L 68.578125 584.738281 Z M 68.578125 225.261719 " fill-opacity="1" fill-rule="nonzero"/></g><g clip-path="url(#c53f967c4e)"><g clip-path="url(#90e4edd92a)"><path fill="#ffffff" d="M 705.992188 349.335938 L 777.558594 349.335938 L 777.558594 460.601562 L 705.992188 460.601562 Z M 705.992188 349.335938 " fill-opacity="1" fill-rule="nonzero"/></g></g></svg>