<svg xmlns="http://www.w3.org/2000/svg" xmlns:xlink="http://www.w3.org/1999/xlink" width="1080" zoomAndPan="magnify" viewBox="0 0 810 809.999993" height="1080" preserveAspectRatio="xMidYMid meet" version="1.0"><defs><clipPath id="d55f130b84"><path d="M 0 170.101562 L 810 170.101562 L 810 809.851562 L 0 809.851562 Z M 0 170.101562 " clip-rule="nonzero"/></clipPath><clipPath id="a1ab9c069d"><path d="M 613.960938 257.410156 L 757.574219 257.410156 L 757.574219 729 L 613.960938 729 Z M 613.960938 257.410156 " clip-rule="nonzero"/></clipPath><clipPath id="32d94220c0"><path d="M 652.210938 257.410156 L 719.324219 257.410156 C 729.46875 257.410156 739.195312 261.441406 746.371094 268.613281 C 753.542969 275.789062 757.574219 285.515625 757.574219 295.660156 L 757.574219 690.75 C 757.574219 700.894531 753.542969 710.625 746.371094 717.796875 C 739.195312 724.96875 729.46875 729 719.324219 729 L 652.210938 729 C 642.066406 729 632.335938 724.96875 625.164062 717.796875 C 617.988281 710.625 613.960938 700.894531 613.960938 690.75 L 613.960938 295.660156 C 613.960938 285.515625 617.988281 275.789062 625.164062 268.613281 C 632.335938 261.441406 642.066406 257.410156 652.210938 257.410156 Z M 652.210938 257.410156 " clip-rule="nonzero"/></clipPath></defs><g clip-path="url(#d55f130b84)"><path fill="#ffffff" d="M 192.082031 540.761719 C 219.550781 540.761719 241.820312 563.03125 241.820312 590.5 L 241.820312 759.605469 C 241.820312 787.074219 219.550781 809.339844 192.082031 809.339844 L 49.75 809.339844 C 22.28125 809.339844 0.015625 787.074219 0.015625 759.605469 L 0.015625 590.5 C 0.015625 563.03125 22.28125 540.761719 49.75 540.761719 Z M 475.511719 383.851562 C 502.980469 383.851562 525.25 406.117188 525.25 433.585938 L 525.25 759.648438 C 525.25 787.117188 502.980469 809.382812 475.511719 809.382812 L 333.605469 809.382812 C 306.136719 809.382812 283.871094 787.117188 283.871094 759.648438 L 283.871094 433.585938 C 283.871094 406.117188 306.136719 383.851562 333.605469 383.851562 Z M 759.667969 809.78125 L 618.058594 809.78125 C 590.589844 809.78125 568.320312 787.515625 568.320312 760.046875 L 568.320312 220.5 C 568.320312 193.03125 590.589844 170.761719 618.058594 170.761719 L 759.667969 170.761719 C 787.136719 170.761719 809.402344 193.03125 809.402344 220.5 L 809.402344 760.046875 C 809.402344 787.515625 787.136719 809.78125 759.667969 809.78125 Z M 667.796875 710.308594 L 709.929688 710.308594 L 709.929688 270.238281 L 667.796875 270.238281 Z M 667.796875 710.308594 " fill-opacity="1" fill-rule="nonzero"/></g><g clip-path="url(#a1ab9c069d)"><g clip-path="url(#32d94220c0)"><path fill="#ffffff" d="M 613.960938 257.410156 L 757.574219 257.410156 L 757.574219 729.203125 L 613.960938 729.203125 Z M 613.960938 257.410156 " fill-opacity="1" fill-rule="nonzero"/></g></g></svg>