<svg xmlns="http://www.w3.org/2000/svg" xmlns:xlink="http://www.w3.org/1999/xlink" width="1080" zoomAndPan="magnify" viewBox="0 0 810 809.999993" height="1080" preserveAspectRatio="xMidYMid meet" version="1.0"><defs><clipPath id="006834e091"><path d="M 283.5 162 L 526.5 162 L 526.5 405 L 283.5 405 Z M 283.5 162 " clip-rule="nonzero"/></clipPath><clipPath id="0acc983231"><path d="M 405 162 C 337.898438 162 283.5 216.398438 283.5 283.5 C 283.5 350.601562 337.898438 405 405 405 C 472.101562 405 526.5 350.601562 526.5 283.5 C 526.5 216.398438 472.101562 162 405 162 Z M 405 162 " clip-rule="nonzero"/></clipPath><clipPath id="69940ef3e4"><path d="M 258.230469 347.332031 L 551.816406 347.332031 L 551.816406 616.714844 L 258.230469 616.714844 Z M 258.230469 347.332031 " clip-rule="nonzero"/></clipPath><clipPath id="171c48cd86"><path d="M 356.128906 353.496094 C 371.128906 349.773438 388.289062 347.332031 405.078125 347.332031 C 421.871094 347.332031 438.03125 349.425781 452.921875 353.148438 C 453.238281 353.265625 453.554688 353.265625 453.871094 353.378906 C 509.792969 368.269531 550.980469 407.589844 551.769531 453.683594 L 551.769531 616.714844 L 258.230469 616.714844 L 258.230469 453.804688 C 259.019531 407.355469 299.574219 368.039062 356.128906 353.496094 Z M 356.128906 353.496094 " clip-rule="nonzero"/></clipPath></defs><g clip-path="url(#006834e091)"><g clip-path="url(#0acc983231)"><path fill="#e4ebf4" d="M 283.5 162 L 526.5 162 L 526.5 405 L 283.5 405 Z M 283.5 162 " fill-opacity="1" fill-rule="nonzero"/></g></g><g clip-path="url(#69940ef3e4)"><g clip-path="url(#171c48cd86)"><path fill="#e4ebf4" d="M 258.230469 347.332031 L 551.816406 347.332031 L 551.816406 616.714844 L 258.230469 616.714844 Z M 258.230469 347.332031 " fill-opacity="1" fill-rule="nonzero"/></g></g></svg>