<svg xmlns="http://www.w3.org/2000/svg" xmlns:xlink="http://www.w3.org/1999/xlink" width="48" zoomAndPan="magnify" viewBox="0 0 36 36.000001" height="48" preserveAspectRatio="xMidYMid meet" version="1.0"><path fill="#555555" d="M 26.757812 11.675781 L 29.675781 11.675781 C 29.871094 11.675781 30.054688 11.710938 30.234375 11.785156 C 30.414062 11.859375 30.570312 11.964844 30.707031 12.101562 C 30.84375 12.238281 30.949219 12.398438 31.023438 12.578125 C 31.097656 12.753906 31.136719 12.941406 31.136719 13.136719 L 31.136719 30.648438 C 31.136719 30.84375 31.097656 31.027344 31.023438 31.207031 C 30.949219 31.386719 30.84375 31.542969 30.707031 31.679688 C 30.570312 31.816406 30.414062 31.921875 30.234375 31.996094 C 30.054688 32.070312 29.871094 32.109375 29.675781 32.109375 L 6.324219 32.109375 C 6.128906 32.109375 5.945312 32.070312 5.765625 31.996094 C 5.585938 31.921875 5.429688 31.816406 5.292969 31.679688 C 5.15625 31.542969 5.050781 31.386719 4.976562 31.207031 C 4.902344 31.027344 4.863281 30.84375 4.863281 30.648438 L 4.863281 13.136719 C 4.863281 12.941406 4.902344 12.753906 4.976562 12.578125 C 5.050781 12.398438 5.15625 12.238281 5.292969 12.101562 C 5.429688 11.964844 5.585938 11.859375 5.765625 11.785156 C 5.945312 11.710938 6.128906 11.675781 6.324219 11.675781 L 9.242188 11.675781 L 9.242188 10.214844 C 9.242188 9.640625 9.300781 9.070312 9.410156 8.507812 C 9.523438 7.945312 9.691406 7.394531 9.910156 6.863281 C 10.128906 6.332031 10.398438 5.828125 10.71875 5.351562 C 11.039062 4.875 11.402344 4.429688 11.808594 4.023438 C 12.214844 3.617188 12.65625 3.253906 13.136719 2.933594 C 13.613281 2.617188 14.117188 2.347656 14.648438 2.125 C 15.179688 1.90625 15.726562 1.738281 16.292969 1.628906 C 16.855469 1.515625 17.425781 1.460938 18 1.460938 C 18.574219 1.460938 19.144531 1.515625 19.707031 1.628906 C 20.273438 1.738281 20.820312 1.90625 21.351562 2.125 C 21.882812 2.347656 22.386719 2.617188 22.863281 2.933594 C 23.34375 3.253906 23.785156 3.617188 24.191406 4.023438 C 24.597656 4.429688 24.960938 4.875 25.28125 5.351562 C 25.601562 5.828125 25.871094 6.332031 26.089844 6.863281 C 26.308594 7.394531 26.476562 7.945312 26.589844 8.507812 C 26.699219 9.070312 26.757812 9.640625 26.757812 10.214844 Z M 16.539062 22.960938 L 16.539062 26.269531 L 19.460938 26.269531 L 19.460938 22.960938 C 19.644531 22.855469 19.816406 22.726562 19.972656 22.585938 C 20.128906 22.441406 20.269531 22.28125 20.390625 22.105469 C 20.511719 21.933594 20.613281 21.746094 20.695312 21.550781 C 20.777344 21.351562 20.835938 21.148438 20.875 20.9375 C 20.910156 20.730469 20.925781 20.519531 20.917969 20.304688 C 20.90625 20.09375 20.875 19.882812 20.820312 19.675781 C 20.765625 19.472656 20.6875 19.273438 20.589844 19.085938 C 20.492188 18.894531 20.371094 18.71875 20.234375 18.554688 C 20.097656 18.394531 19.945312 18.246094 19.777344 18.117188 C 19.609375 17.988281 19.425781 17.878906 19.234375 17.785156 C 19.039062 17.695312 18.839844 17.628906 18.632812 17.582031 C 18.421875 17.535156 18.214844 17.511719 18 17.511719 C 17.785156 17.511719 17.578125 17.535156 17.367188 17.582031 C 17.160156 17.628906 16.960938 17.695312 16.765625 17.785156 C 16.574219 17.878906 16.390625 17.988281 16.222656 18.117188 C 16.054688 18.246094 15.902344 18.394531 15.765625 18.554688 C 15.628906 18.71875 15.507812 18.894531 15.410156 19.085938 C 15.3125 19.273438 15.234375 19.472656 15.179688 19.675781 C 15.125 19.882812 15.09375 20.09375 15.082031 20.304688 C 15.074219 20.519531 15.089844 20.730469 15.125 20.9375 C 15.164062 21.148438 15.222656 21.351562 15.304688 21.550781 C 15.386719 21.746094 15.488281 21.933594 15.609375 22.105469 C 15.730469 22.28125 15.871094 22.441406 16.027344 22.585938 C 16.183594 22.726562 16.355469 22.855469 16.539062 22.960938 Z M 23.835938 11.675781 L 23.835938 10.214844 C 23.835938 9.832031 23.800781 9.453125 23.726562 9.078125 C 23.652344 8.703125 23.539062 8.335938 23.394531 7.980469 C 23.246094 7.628906 23.066406 7.292969 22.855469 6.972656 C 22.640625 6.652344 22.398438 6.359375 22.128906 6.089844 C 21.855469 5.816406 21.5625 5.574219 21.242188 5.363281 C 20.925781 5.148438 20.589844 4.96875 20.234375 4.824219 C 19.878906 4.675781 19.515625 4.566406 19.140625 4.492188 C 18.761719 4.414062 18.382812 4.378906 18 4.378906 C 17.617188 4.378906 17.238281 4.414062 16.859375 4.492188 C 16.484375 4.566406 16.121094 4.675781 15.765625 4.824219 C 15.410156 4.96875 15.074219 5.148438 14.757812 5.363281 C 14.4375 5.574219 14.144531 5.816406 13.871094 6.089844 C 13.601562 6.359375 13.359375 6.652344 13.144531 6.972656 C 12.933594 7.292969 12.753906 7.628906 12.605469 7.980469 C 12.460938 8.335938 12.347656 8.703125 12.273438 9.078125 C 12.199219 9.453125 12.164062 9.832031 12.164062 10.214844 L 12.164062 11.675781 Z M 23.835938 11.675781 " fill-opacity="1" fill-rule="nonzero"/></svg>